<?xml version="1.0" encoding="utf-8"?>
<!-- Generator: Adobe Illustrator 15.0.0, SVG Export Plug-In . SVG Version: 6.00 Build 0)  -->
<!DOCTYPE svg PUBLIC "-//W3C//DTD SVG 1.1//EN" "http://www.w3.org/Graphics/SVG/1.1/DTD/svg11.dtd">
<svg version="1.1" id="Слой_1" xmlns="http://www.w3.org/2000/svg" xmlns:xlink="http://www.w3.org/1999/xlink" x="0px" y="0px"
	 width="16px" height="16px" viewBox="0 0 16 16" enable-background="new 0 0 16 16" xml:space="preserve">
<path fill="#FFFFFF" d="M14.404,16.006c-0.41,0-0.819-0.156-1.132-0.469L0.463,2.728c-0.625-0.625-0.625-1.639,0-2.264
	c0.625-0.625,1.64-0.625,2.264,0l12.81,12.809c0.624,0.626,0.624,1.638,0,2.265C15.225,15.85,14.814,16.006,14.404,16.006z"/>
<path fill="#FFFFFF" d="M16.006,1.596c0,0.41-0.156,0.819-0.469,1.132l-12.81,12.81c-0.625,0.625-1.639,0.625-2.264,0
	c-0.625-0.625-0.625-1.64,0-2.265l12.81-12.81c0.626-0.624,1.638-0.624,2.265,0C15.85,0.775,16.006,1.186,16.006,1.596z"/>
</svg>
